<svg width="389" height="154" viewBox="0 0 389 154" fill="none" xmlns="http://www.w3.org/2000/svg">
<path d="M383.494 111.688H383.832C384.006 112.797 384.809 113.466 385.902 113.466C386.797 113.466 387.362 113 387.362 112.276C387.362 111.652 386.997 111.294 385.766 110.753C384.252 110.084 383.785 109.578 383.785 108.633C383.785 107.494 384.634 106.688 385.829 106.688C386.358 106.688 386.806 106.852 387.281 107.229L387.517 106.816H387.728L387.828 108.641H387.49C387.198 107.644 386.633 107.154 385.857 107.154C385.118 107.154 384.645 107.56 384.645 108.172C384.645 108.753 385 109.1 386.04 109.568C387.845 110.385 388.357 110.89 388.357 111.852C388.357 113.084 387.344 113.936 385.876 113.936C385.182 113.936 384.662 113.753 384.096 113.294L383.84 113.742H383.632L383.494 111.688Z" fill="white"/>
<path d="M62.1572 97.0484V59.3831L49.3918 62.7924V103.856C53.3398 101.115 57.6078 98.8911 62.1572 97.0484Z" fill="#337ABE"/>
<path d="M81.9234 87.9403V47.6816L69.1581 50.7136V94.3723C73.5141 92.4363 77.7101 90.1976 81.9234 87.9403Z" fill="#337ABE"/>
<path d="M101.142 79.428V36.248L88.3762 38.908V84.6173C92.5869 82.608 96.8242 80.9413 101.142 79.428Z" fill="#337ABE"/>
<path d="M24.7893 105.508V44.928L79.5507 13.312L125.744 39.9827C128.259 37.1267 130.773 34.1347 133.273 31.016L79.5507 -3.87315e-06L13.26 38.272V104.617C16.3173 105.536 20.1013 105.951 24.7893 105.508Z" fill="#337ABE"/>
<path d="M173.504 62.8784L180.822 46.1824H187.128V47.2544C184.708 47.3397 184.341 48.1024 184.341 51.521V62.5957C184.341 66.3237 184.764 66.777 187.409 66.861V67.9344H178.289V66.861C180.936 66.777 181.385 66.2957 181.385 62.793V49.6837H181.104L172.884 68.217H172.265L164.186 49.6837H164.073V62.5957C164.073 66.3237 164.496 66.777 167.142 66.861V67.9344H159.288V66.861C161.934 66.777 162.384 66.2957 162.384 62.793V51.3224C162.384 48.1304 161.99 47.3677 159.569 47.2544V46.1824H166.297L173.392 62.8784H173.504Z" fill="white"/>
<path d="M195.476 58.6401H201.895L198.77 50.3068L195.476 58.6401ZM202.43 60.0535H194.914C193.619 63.1601 193.168 64.7148 193.168 65.4761C193.168 66.5228 193.815 66.8615 195.364 66.8615V67.9348H188.524V66.8615C190.24 66.6628 190.944 66.1828 191.591 64.5735L198.911 46.1815H200.122L206.511 62.1148C208.228 66.3521 208.848 66.8335 210.79 66.8335V67.9348H201.614V66.8335C203.612 66.8335 204.231 66.4948 204.231 65.6188C204.231 64.8828 204.09 64.4028 203.584 63.1041L202.43 60.0535Z" fill="white"/>
<path d="M229.951 68.217L216.58 50.5317H216.467V62.5957C216.467 66.325 216.861 66.777 219.253 66.861V67.9344H211.681V66.861C214.327 66.777 214.777 66.297 214.777 62.793V51.3237C214.777 48.1317 214.384 47.3677 211.963 47.2544V46.1824H217.536L229.839 62.6517H229.951V51.521C229.951 47.7917 229.556 47.3397 227.164 47.2544V46.1824H234.736V47.2544C232.089 47.3397 231.64 47.821 231.64 51.3237V68.217H229.951Z" fill="white"/>
<path d="M243.114 55.9846C247.169 55.9846 248.436 55.0246 248.436 52.7352H249.42V60.4486H248.436C248.436 58.1886 247.337 57.1432 243.114 57.1152V63.4992C243.114 65.9566 244.241 66.7206 247.788 66.7206C251.757 66.7206 253.165 65.7032 253.896 62.3699H254.966L254.544 67.9339H237.062V66.8606C239.709 66.7766 240.158 66.2966 240.158 63.6406V50.4766C240.158 47.8486 239.765 47.3686 237.344 47.2552V46.1819H253.614L253.868 51.1539H252.882C252.432 48.1592 250.997 47.3966 247.169 47.3966H243.593C243.284 47.3966 243.114 47.5952 243.114 47.8766V55.9846Z" fill="white"/>
<path d="M260.306 50.4762C260.306 47.8482 259.913 47.3682 257.492 47.2548V46.1815H266.049V47.2548C263.628 47.3402 263.262 47.8202 263.262 50.6735V67.9908C263.262 72.7095 261.208 75.2802 257.406 75.2802C254.845 75.2802 253.128 74.1788 253.128 72.5388C253.128 71.5788 253.664 71.0428 254.564 71.0428C255.268 71.0428 255.605 71.3255 256.168 72.3708C256.816 73.5855 257.181 73.9228 257.914 73.9228C259.434 73.9228 260.306 72.1722 260.306 69.1495V50.4762Z" fill="white"/>
<path d="M288.368 57.3127C288.368 51.266 285.271 47.4527 280.316 47.4527C275.363 47.4527 272.265 51.266 272.265 57.3127C272.265 63.0473 275.363 66.6633 280.316 66.6633C285.243 66.6633 288.368 63.0473 288.368 57.3127ZM292.028 57.2287C292.028 63.358 286.848 68.2167 280.316 68.2167C273.785 68.2167 268.607 63.358 268.607 57.2287C268.607 50.842 273.729 45.898 280.316 45.898C286.904 45.898 292.028 50.842 292.028 57.2287" fill="white"/>
<path d="M165.339 88.0276C169.394 88.0276 170.661 87.0676 170.661 84.7783H171.645V92.4916H170.661C170.661 90.2316 169.562 89.1849 165.339 89.1596V95.5423C165.339 97.9996 166.466 98.7636 170.013 98.7636C173.982 98.7636 175.39 97.7463 176.121 94.4116H177.191L176.769 99.9769H159.287V98.9036C161.934 98.8196 162.383 98.3383 162.383 95.6849V82.5183C162.383 79.8916 161.99 79.4116 159.569 79.2983V78.2249H175.839L176.093 83.1969H175.107C174.657 80.2023 173.222 79.4396 169.394 79.4396H165.818C165.509 79.4396 165.339 79.6369 165.339 79.9196V88.0276Z" fill="white"/>
<path d="M180.082 93.3388H181.124C181.658 96.7575 184.136 98.8188 187.514 98.8188C190.273 98.8188 192.018 97.3775 192.018 95.1468C192.018 93.2268 190.892 92.1255 187.092 90.4561C182.418 88.3935 180.984 86.8415 180.984 83.9321C180.984 80.4281 183.601 77.9415 187.289 77.9415C188.921 77.9415 190.301 78.4495 191.765 79.6081L192.497 78.3375H193.144L193.453 83.9588H192.413C191.512 80.8801 189.766 79.3828 187.373 79.3828C185.093 79.3828 183.629 80.6268 183.629 82.5188C183.629 84.3001 184.726 85.3721 187.937 86.8121C193.51 89.3268 195.086 90.8801 195.086 93.8468C195.086 97.6335 191.962 100.26 187.429 100.26C185.29 100.26 183.686 99.6961 181.941 98.2815L181.152 99.6668H180.505L180.082 93.3388Z" fill="white"/>
<path d="M218.528 83.62H217.374C217.12 80.3427 215.826 79.4387 212.56 79.4387C209.774 79.4387 209.379 79.6667 209.379 80.316V95.428C209.379 97.86 209.83 98.7907 213.011 98.904V99.9774H202.37V98.904C205.551 98.7907 206.03 97.86 206.03 95.428V80.316C206.03 79.6667 205.664 79.4387 203.271 79.4387C200.343 79.4387 198.147 79.608 198.035 83.62H196.994V78.2254H218.247L218.528 83.62Z" fill="white"/>
<path d="M226.316 88.2541H228.315C232.031 88.2541 233.86 86.9541 233.86 83.8181C233.86 80.7954 232.453 79.5514 229.384 79.5514H226.795C226.485 79.5514 226.316 79.7501 226.316 80.0328V88.2541ZM231.861 89.4408L238.083 96.9554C239.096 98.1981 240.279 98.6514 241.94 98.9034V99.9768H236.507L229.609 91.1074C228.624 89.8074 228.061 89.6674 226.316 89.6674V95.5421C226.316 98.3381 226.795 98.9034 230.201 98.9034V99.9768H220.264V98.9034C222.909 98.8194 223.36 98.3381 223.36 95.6848V82.5181C223.36 79.8914 222.967 79.4114 220.545 79.2981V78.2248H229.384C234.536 78.2248 237.52 80.2581 237.52 83.6768C237.52 86.6714 235.803 88.7634 231.861 89.4408" fill="white"/>
<path d="M247.955 90.6826H254.372L251.248 82.3492L247.955 90.6826ZM254.908 92.0972H247.392C246.096 95.2039 245.647 96.7586 245.647 97.5199C245.647 98.5652 246.293 98.9039 247.843 98.9039V99.9772H241.001V98.9039C242.719 98.7066 243.423 98.2266 244.069 96.6146L251.389 78.2252H252.599L258.989 94.1572C260.707 98.3959 261.325 98.8759 263.268 98.8759V99.9772H254.092V98.8759C256.091 98.8759 256.709 98.5372 256.709 97.6612C256.709 96.9266 256.568 96.4466 256.063 95.1479L254.908 92.0972Z" fill="white"/>
<path d="M282.965 83.62H281.812C281.559 80.3427 280.264 79.4387 276.997 79.4387C274.211 79.4387 273.817 79.6667 273.817 80.316V95.428C273.817 97.86 274.268 98.7907 277.448 98.904V99.9774H266.808V98.904C269.989 98.7907 270.467 97.86 270.467 95.428V80.316C270.467 79.6667 270.101 79.4387 267.708 79.4387C264.78 79.4387 262.585 79.608 262.472 83.62H261.431V78.2254H282.684L282.965 83.62Z" fill="white"/>
<path d="M291.288 75.9651L294.948 73.7891C295.989 73.1677 296.637 72.8571 297.397 72.8571C298.044 72.8571 298.467 73.2251 298.467 73.8451C298.467 74.4384 297.621 74.8904 296.355 75.1731L292.977 75.9651H291.288ZM290.753 88.0277C294.807 88.0277 296.073 87.0677 296.073 84.7784H297.059V92.4917H296.073C296.073 90.2317 294.976 89.1851 290.753 89.1597V95.5424C290.753 97.9997 291.879 98.7637 295.427 98.7637C299.396 98.7637 300.803 97.7464 301.535 94.4117H302.604L302.183 99.9771H284.701V98.9037C287.347 98.8197 287.797 98.3384 287.797 95.685V82.5184C287.797 79.8917 287.403 79.4117 284.983 79.2984V78.2251H301.253L301.507 83.1971H300.521C300.071 80.2024 298.636 79.4384 294.807 79.4384H291.232C290.923 79.4384 290.753 79.6371 290.753 79.9197V88.0277Z" fill="white"/>
<path d="M305.552 89.4689C305.552 82.6329 309.943 77.9409 316.334 77.9409C318.586 77.9409 320.443 78.5356 322.752 79.9769L323.343 78.2249H324.328L323.963 84.7209H322.611C322.611 81.0503 319.627 79.4116 316.587 79.4116C312.027 79.4116 309.324 83.1409 309.324 89.2983C309.324 95.3436 311.942 98.7343 316.671 98.7343C320.303 98.7343 322.414 96.8423 322.414 94.7516C322.414 92.5476 321.598 91.9529 319.599 91.9529V90.8809H327.594V91.9529C325.764 91.9529 325.286 92.5183 325.286 94.4689V97.6329C323.85 97.6329 323.118 97.8023 320.979 99.0169C319.684 99.7503 317.911 100.261 315.912 100.261C309.55 100.261 305.552 96.0516 305.552 89.4689Z" fill="white"/>
<path d="M335.663 94.6383C335.663 98.3676 336.086 98.8196 338.731 98.9036V99.9769H329.611V98.9036C332.256 98.8196 332.707 98.3383 332.707 94.8356V83.3663C332.707 80.1743 332.314 79.4116 329.892 79.2983V78.2249H338.45V79.2983C336.028 79.3836 335.663 80.1449 335.663 83.5623V94.6383Z" fill="white"/>
<path d="M359.108 78.2248H359.896L360.149 84.7222H359.108C358.292 81.4448 355.757 79.4115 352.436 79.4115C347.876 79.4115 345.173 83.1408 345.173 89.2982C345.173 95.3435 347.792 98.7342 352.521 98.7342C356.096 98.7342 358.488 96.7582 359.501 92.9435H360.656V99.9768H359.67L359.024 97.7462C357.025 99.4408 354.66 100.261 351.873 100.261C345.51 100.261 341.401 96.0515 341.401 89.4688C341.401 82.6328 345.793 77.9422 352.182 77.9422C354.434 77.9422 356.293 78.5355 358.601 79.9768L359.108 78.2248Z" fill="white"/>
<path d="M383.644 89.357C383.644 83.3103 380.549 79.4956 375.595 79.4956C370.64 79.4956 367.541 83.3103 367.541 89.357C367.541 95.0916 370.64 98.7063 375.595 98.7063C380.52 98.7063 383.644 95.0916 383.644 89.357ZM387.305 89.2716C387.305 95.401 382.125 100.261 375.595 100.261C369.064 100.261 363.884 95.401 363.884 89.2716C363.884 82.885 369.005 77.941 375.595 77.941C382.18 77.941 387.305 82.885 387.305 89.2716" fill="white"/>
<path d="M159.016 107.917C158.643 107.284 158.432 107.128 157.931 107.128V106.781H160.804V107.128C160.203 107.128 159.975 107.212 159.975 107.441C159.975 107.56 160.039 107.742 160.183 107.99L161.597 110.422H161.635L162.665 108.677C163.048 108.026 163.204 107.669 163.204 107.441C163.204 107.212 163.048 107.128 162.611 107.128V106.781H164.7V107.128C164.189 107.128 163.952 107.368 163.204 108.633L161.799 111.018V112.11C161.799 113.302 161.917 113.496 162.793 113.496V113.844H159.837V113.496C160.705 113.496 160.841 113.294 160.841 112.174V111.056L159.016 107.917Z" fill="white"/>
<path d="M167.456 111.688H167.793C167.965 112.797 168.768 113.466 169.864 113.466C170.759 113.466 171.324 113 171.324 112.276C171.324 111.652 170.959 111.294 169.727 110.753C168.212 110.084 167.747 109.578 167.747 108.633C167.747 107.494 168.596 106.688 169.791 106.688C170.32 106.688 170.768 106.852 171.243 107.229L171.479 106.816H171.688L171.789 108.641H171.452C171.16 107.644 170.595 107.154 169.819 107.154C169.079 107.154 168.604 107.56 168.604 108.172C168.604 108.753 168.961 109.1 170 109.568C171.807 110.385 172.319 110.89 172.319 111.852C172.319 113.084 171.305 113.936 169.836 113.936C169.144 113.936 168.624 113.753 168.057 113.294L167.801 113.742H167.593L167.456 111.688Z" fill="white"/>
<path d="M175.183 109.964C176.498 109.964 176.907 109.652 176.907 108.909H177.226V111.414H176.907C176.907 110.677 176.552 110.338 175.183 110.33V112.404C175.183 113.201 175.548 113.45 176.696 113.45C177.984 113.45 178.44 113.117 178.678 112.037H179.024L178.888 113.844H173.22V113.494C174.079 113.466 174.224 113.31 174.224 112.448V108.172C174.224 107.321 174.098 107.164 173.312 107.128V106.781H178.587L178.67 108.393H178.35C178.203 107.422 177.738 107.174 176.498 107.174H175.338C175.238 107.174 175.183 107.24 175.183 107.33V109.964Z" fill="white"/>
<path d="M181.806 110.037H182.454C183.66 110.037 184.253 109.615 184.253 108.597C184.253 107.615 183.796 107.211 182.802 107.211H181.962C181.861 107.211 181.806 107.277 181.806 107.367V110.037ZM183.605 110.422L185.62 112.862C185.948 113.266 186.333 113.411 186.87 113.495V113.843H185.11L182.874 110.963C182.556 110.542 182.372 110.495 181.806 110.495V112.403C181.806 113.31 181.962 113.495 183.065 113.495V113.843H179.845V113.495C180.702 113.466 180.849 113.31 180.849 112.449V108.173C180.849 107.321 180.721 107.165 179.937 107.127V106.782H182.802C184.472 106.782 185.438 107.441 185.438 108.55C185.438 109.523 184.882 110.201 183.605 110.422" fill="white"/>
<path d="M190.064 112.44L191.67 108.459C191.852 108.008 191.916 107.779 191.916 107.579C191.916 107.247 191.743 107.128 191.204 107.128V106.782H193.422V107.128C192.866 107.192 192.636 107.356 192.427 107.87L189.955 113.935H189.635L187.282 108.219C186.971 107.476 186.715 107.175 186.076 107.138V106.782H189.051V107.138C188.375 107.138 188.222 107.266 188.222 107.523C188.222 107.698 188.276 107.891 188.44 108.312L190.064 112.44Z" fill="white"/>
<path d="M195.72 112.11C195.72 113.32 195.859 113.467 196.716 113.495V113.844H193.759V113.495C194.616 113.467 194.763 113.31 194.763 112.175V108.451C194.763 107.412 194.635 107.164 193.851 107.128V106.782H196.624V107.128C195.839 107.154 195.72 107.404 195.72 108.514V112.11Z" fill="white"/>
<path d="M203.321 106.781H203.575L203.658 108.888H203.321C203.055 107.825 202.235 107.164 201.157 107.164C199.681 107.164 198.803 108.375 198.803 110.375C198.803 112.339 199.654 113.44 201.185 113.44C202.345 113.44 203.119 112.797 203.447 111.56H203.822V113.844H203.502L203.293 113.117C202.645 113.669 201.879 113.935 200.975 113.935C198.913 113.935 197.581 112.568 197.581 110.429C197.581 108.211 199.005 106.688 201.075 106.688C201.806 106.688 202.407 106.88 203.157 107.349L203.321 106.781Z" fill="white"/>
<path d="M206.723 112.11C206.723 113.32 206.862 113.467 207.719 113.495V113.844H204.762V113.495C205.619 113.467 205.766 113.31 205.766 112.175V108.451C205.766 107.412 205.638 107.164 204.854 107.128V106.782H207.627V107.128C206.842 107.154 206.723 107.404 206.723 108.514V112.11Z" fill="white"/>
<path d="M214.935 110.396C214.935 108.429 213.931 107.193 212.325 107.193C210.72 107.193 209.716 108.429 209.716 110.396C209.716 112.256 210.72 113.429 212.325 113.429C213.923 113.429 214.935 112.256 214.935 110.396ZM216.123 110.368C216.123 112.357 214.443 113.935 212.325 113.935C210.209 113.935 208.531 112.357 208.531 110.368C208.531 108.295 210.191 106.688 212.325 106.688C214.46 106.688 216.123 108.295 216.123 110.368" fill="white"/>
<path d="M217.171 111.688H217.508C217.68 112.797 218.483 113.466 219.579 113.466C220.473 113.466 221.039 113 221.039 112.276C221.039 111.652 220.673 111.294 219.441 110.753C217.927 110.084 217.461 109.578 217.461 108.633C217.461 107.494 218.311 106.688 219.505 106.688C220.035 106.688 220.483 106.852 220.957 107.229L221.193 106.816H221.403L221.504 108.641H221.167C220.875 107.644 220.309 107.154 219.533 107.154C218.793 107.154 218.319 107.56 218.319 108.172C218.319 108.753 218.676 109.1 219.715 109.568C221.521 110.385 222.033 110.89 222.033 111.852C222.033 113.084 221.02 113.936 219.551 113.936C218.857 113.936 218.337 113.753 217.772 113.294L217.516 113.742H217.308L217.171 111.688Z" fill="white"/>
<path d="M227.699 107.229C227.598 107.229 227.543 107.295 227.543 107.385V112.347C227.543 113.055 227.982 113.396 228.903 113.396C230.554 113.396 231.486 112.375 231.486 110.451C231.486 108.423 230.482 107.229 228.858 107.229H227.699ZM225.49 113.844V113.495C226.422 113.467 226.586 113.32 226.586 112.448V108.172C226.586 107.32 226.459 107.164 225.674 107.128V106.781H228.876C231.074 106.781 232.671 108.32 232.671 110.429C232.671 112.44 231.184 113.844 229.059 113.844H225.49Z" fill="white"/>
<path d="M235.463 109.964C236.778 109.964 237.187 109.652 237.187 108.909H237.506V111.414H237.187C237.187 110.677 236.832 110.338 235.463 110.33V112.404C235.463 113.201 235.828 113.45 236.976 113.45C238.264 113.45 238.72 113.117 238.958 112.037H239.304L239.167 113.844H233.5V113.494C234.359 113.466 234.504 113.31 234.504 112.448V108.172C234.504 107.321 234.378 107.164 233.592 107.128V106.781H238.867L238.948 108.393H238.63C238.483 107.422 238.018 107.174 236.778 107.174H235.618C235.518 107.174 235.463 107.24 235.463 107.33V109.964Z" fill="white"/>
<path d="M244.168 110.826H246.248L245.234 108.118L244.168 110.826ZM246.421 111.284H243.984C243.564 112.292 243.42 112.798 243.42 113.044C243.42 113.386 243.629 113.495 244.13 113.495V113.844H241.914V113.495C242.47 113.43 242.698 113.274 242.908 112.75L245.28 106.782H245.673L247.744 111.954C248.3 113.331 248.501 113.487 249.13 113.487V113.844H246.156V113.487C246.804 113.487 247.005 113.375 247.005 113.091C247.005 112.852 246.958 112.695 246.794 112.276L246.421 111.284Z" fill="white"/>
<path d="M249.54 111.688H249.877C250.052 112.797 250.855 113.466 251.949 113.466C252.843 113.466 253.408 113 253.408 112.276C253.408 111.652 253.043 111.294 251.813 110.753C250.297 110.084 249.833 109.578 249.833 108.633C249.833 107.494 250.68 106.688 251.876 106.688C252.404 106.688 252.852 106.852 253.327 107.229L253.565 106.816H253.773L253.873 108.641H253.537C253.244 107.644 252.679 107.154 251.903 107.154C251.164 107.154 250.691 107.56 250.691 108.172C250.691 108.753 251.045 109.1 252.087 109.568C253.893 110.385 254.403 110.89 254.403 111.852C254.403 113.084 253.391 113.936 251.923 113.936C251.229 113.936 250.708 113.753 250.144 113.294L249.888 113.742H249.677L249.54 111.688Z" fill="white"/>
<path d="M257.268 109.964C258.581 109.964 258.992 109.652 258.992 108.909H259.312V111.414H258.992C258.992 110.677 258.636 110.338 257.268 110.33V112.404C257.268 113.201 257.632 113.45 258.783 113.45C260.071 113.45 260.525 113.117 260.764 112.037H261.109L260.972 113.844H255.307V113.494C256.164 113.466 256.311 113.31 256.311 112.448V108.172C256.311 107.321 256.183 107.164 255.399 107.128V106.781H260.672L260.753 108.393H260.435C260.289 107.422 259.824 107.174 258.581 107.174H257.424C257.323 107.174 257.268 107.24 257.268 107.33V109.964Z" fill="white"/>
<path d="M262.05 111.688H262.387C262.559 112.797 263.362 113.466 264.458 113.466C265.352 113.466 265.918 113 265.918 112.276C265.918 111.652 265.554 111.294 264.322 110.753C262.806 110.084 262.34 109.578 262.34 108.633C262.34 107.494 263.19 106.688 264.386 106.688C264.915 106.688 265.362 106.852 265.836 107.229L266.074 106.816H266.282L266.383 108.641H266.046C265.754 107.644 265.188 107.154 264.412 107.154C263.672 107.154 263.198 107.56 263.198 108.172C263.198 108.753 263.555 109.1 264.595 109.568C266.402 110.385 266.912 110.89 266.912 111.852C266.912 113.084 265.899 113.936 264.431 113.936C263.738 113.936 263.218 113.753 262.651 113.294L262.395 113.742H262.187L262.05 111.688Z" fill="white"/>
<path d="M274.33 110.396C274.33 108.429 273.326 107.193 271.72 107.193C270.114 107.193 269.11 108.429 269.11 110.396C269.11 112.256 270.114 113.429 271.72 113.429C273.316 113.429 274.33 112.256 274.33 110.396ZM275.515 110.368C275.515 112.357 273.836 113.935 271.72 113.935C269.604 113.935 267.924 112.357 267.924 110.368C267.924 108.295 269.584 106.688 271.72 106.688C273.855 106.688 275.515 108.295 275.515 110.368" fill="white"/>
<path d="M278.289 110.037H278.937C280.142 110.037 280.735 109.615 280.735 108.597C280.735 107.615 280.278 107.211 279.285 107.211H278.445C278.343 107.211 278.289 107.277 278.289 107.367V110.037ZM280.087 110.422L282.102 112.862C282.43 113.266 282.815 113.411 283.353 113.495V113.843H281.593L279.357 110.963C279.038 110.542 278.854 110.495 278.289 110.495V112.403C278.289 113.31 278.445 113.495 279.547 113.495V113.843H276.327V113.495C277.185 113.466 277.331 113.31 277.331 112.449V108.173C277.331 107.321 277.203 107.165 276.419 107.127V106.782H279.285C280.954 106.782 281.921 107.441 281.921 108.55C281.921 109.523 281.365 110.201 280.087 110.422" fill="white"/>
<path d="M285.479 109.964C286.793 109.964 287.203 109.652 287.203 108.909H287.521V111.414H287.203C287.203 110.677 286.848 110.338 285.479 110.33V112.404C285.479 113.201 285.844 113.45 286.992 113.45C288.28 113.45 288.736 113.117 288.973 112.037H289.32L289.183 113.844H283.516V113.494C284.375 113.466 284.52 113.31 284.52 112.448V108.172C284.52 107.321 284.393 107.164 283.608 107.128V106.781H288.883L288.964 108.393H288.645C288.499 107.422 288.033 107.174 286.793 107.174H285.633C285.533 107.174 285.479 107.24 285.479 107.33V109.964Z" fill="white"/>
<path d="M290.259 111.688H290.597C290.771 112.797 291.574 113.466 292.669 113.466C293.562 113.466 294.127 113 294.127 112.276C294.127 111.652 293.763 111.294 292.533 110.753C291.017 110.084 290.553 109.578 290.553 108.633C290.553 107.494 291.399 106.688 292.595 106.688C293.125 106.688 293.571 106.852 294.046 107.229L294.285 106.816H294.493L294.593 108.641H294.257C293.963 107.644 293.398 107.154 292.622 107.154C291.885 107.154 291.41 107.56 291.41 108.172C291.41 108.753 291.765 109.1 292.806 109.568C294.613 110.385 295.122 110.89 295.122 111.852C295.122 113.084 294.11 113.936 292.642 113.936C291.949 113.936 291.427 113.753 290.863 113.294L290.607 113.742H290.397L290.259 111.688Z" fill="white"/>
<path d="M300.606 109.964C301.92 109.964 302.33 109.652 302.33 108.909H302.648V111.414H302.33C302.33 110.677 301.975 110.338 300.606 110.33V112.404C300.606 113.201 300.971 113.45 302.119 113.45C303.407 113.45 303.863 113.117 304.1 112.037H304.447L304.31 113.844H298.643V113.494C299.502 113.466 299.647 113.31 299.647 112.448V108.172C299.647 107.321 299.52 107.164 298.735 107.128V106.781H304.01L304.091 108.393H303.772C303.626 107.422 303.16 107.174 301.92 107.174H300.76C300.66 107.174 300.606 107.24 300.606 107.33V109.964Z" fill="white"/>
<path d="M305.386 111.688H305.724C305.897 112.797 306.7 113.466 307.794 113.466C308.689 113.466 309.256 113 309.256 112.276C309.256 111.652 308.89 111.294 307.658 110.753C306.142 110.084 305.678 109.578 305.678 108.633C305.678 107.494 306.526 106.688 307.722 106.688C308.252 106.688 308.698 106.852 309.173 107.229L309.41 106.816H309.618L309.72 108.641H309.382C309.092 107.644 308.525 107.154 307.749 107.154C307.009 107.154 306.536 107.56 306.536 108.172C306.536 108.753 306.892 109.1 307.932 109.568C309.738 110.385 310.249 110.89 310.249 111.852C310.249 113.084 309.236 113.936 307.768 113.936C307.074 113.936 306.554 113.753 305.988 113.294L305.733 113.742H305.524L305.386 111.688Z" fill="white"/>
<path d="M313.114 110.175H313.762C314.966 110.175 315.56 109.735 315.56 108.661C315.56 107.633 315.102 107.211 314.109 107.211H313.269C313.169 107.211 313.114 107.276 313.114 107.368V110.175ZM313.934 110.633H313.114V112.404C313.114 113.311 313.269 113.495 314.374 113.495V113.844H311.152V113.495C312.01 113.467 312.156 113.311 312.156 112.448V108.172C312.156 107.32 312.029 107.164 311.244 107.128V106.781H314.109C315.778 106.781 316.745 107.44 316.745 108.549C316.745 109.836 315.97 110.633 313.934 110.633" fill="white"/>
<path d="M319.381 109.964C320.696 109.964 321.105 109.652 321.105 108.909H321.426V111.414H321.105C321.105 110.677 320.75 110.338 319.381 110.33V112.404C319.381 113.201 319.746 113.45 320.897 113.45C322.184 113.45 322.638 113.117 322.877 112.037H323.222L323.085 113.844H317.42V113.494C318.277 113.466 318.424 113.31 318.424 112.448V108.172C318.424 107.321 318.296 107.164 317.512 107.128V106.781H322.785L322.866 108.393H322.548C322.402 107.422 321.937 107.174 320.696 107.174H319.537C319.436 107.174 319.381 107.24 319.381 107.33V109.964Z" fill="white"/>
<path d="M329.921 106.781H330.174L330.258 108.888H329.921C329.655 107.825 328.835 107.164 327.757 107.164C326.281 107.164 325.403 108.375 325.403 110.375C325.403 112.339 326.253 113.44 327.783 113.44C328.945 113.44 329.719 112.797 330.047 111.56H330.422V113.844H330.102L329.893 113.117C329.245 113.669 328.479 113.935 327.575 113.935C325.513 113.935 324.181 112.568 324.181 110.429C324.181 108.211 325.605 106.688 327.674 106.688C328.405 106.688 329.006 106.88 329.757 107.349L329.921 106.781Z" fill="white"/>
<path d="M333.323 112.11C333.323 113.32 333.46 113.467 334.317 113.495V113.844H331.36V113.495C332.219 113.467 332.364 113.31 332.364 112.175V108.451C332.364 107.412 332.237 107.164 331.452 107.128V106.782H334.225V107.128C333.441 107.154 333.323 107.404 333.323 108.514V112.11Z" fill="white"/>
<path d="M336.936 110.826H339.016L338.004 108.118L336.936 110.826ZM339.189 111.284H336.754C336.334 112.292 336.188 112.798 336.188 113.044C336.188 113.386 336.398 113.495 336.898 113.495V113.844H334.682V113.495C335.238 113.43 335.466 113.274 335.676 112.75L338.048 106.782H338.441L340.513 111.954C341.07 113.331 341.269 113.487 341.9 113.487V113.844H338.925V113.487C339.572 113.487 339.773 113.375 339.773 113.091C339.773 112.852 339.728 112.695 339.564 112.276L339.189 111.284Z" fill="white"/>
<path d="M348.085 113.844H342.192V113.495C343.049 113.467 343.194 113.311 343.194 112.448V108.172C343.194 107.32 343.066 107.164 342.282 107.128V106.781H345.056V107.128C344.27 107.153 344.152 107.311 344.152 108.237V112.191C344.152 113.219 344.517 113.429 345.777 113.429C347.173 113.429 347.61 113.175 347.876 112.037H348.222L348.085 113.844Z" fill="white"/>
<path d="M350.785 112.11C350.785 113.32 350.923 113.467 351.78 113.495V113.844H348.823V113.495C349.681 113.467 349.827 113.31 349.827 112.175V108.451C349.827 107.412 349.7 107.164 348.915 107.128V106.782H351.688V107.128C350.904 107.154 350.785 107.404 350.785 108.514V112.11Z" fill="white"/>
<path d="M358.677 113.844H352.345V113.808L357.144 107.164H354.645C353.788 107.164 353.395 107.513 353.231 108.469H352.893L353.029 106.781H358.585V106.816L353.832 113.423H356.66C357.909 113.423 358.176 113.117 358.395 111.688H358.787L358.677 113.844Z" fill="white"/>
<path d="M361.423 110.826H363.504L362.491 108.118L361.423 110.826ZM363.676 111.284H361.241C360.821 112.292 360.675 112.798 360.675 113.044C360.675 113.386 360.885 113.495 361.385 113.495V113.844H359.169V113.495C359.727 113.43 359.955 113.274 360.164 112.75L362.536 106.782H362.928L365 111.954C365.557 113.331 365.757 113.487 366.387 113.487V113.844H363.413V113.487C364.061 113.487 364.26 113.375 364.26 113.091C364.26 112.852 364.216 112.695 364.052 112.276L363.676 111.284Z" fill="white"/>
<path d="M368.823 107.229C368.723 107.229 368.668 107.295 368.668 107.385V112.347C368.668 113.055 369.105 113.396 370.028 113.396C371.679 113.396 372.609 112.375 372.609 110.451C372.609 108.423 371.605 107.229 369.981 107.229H368.823ZM366.616 113.844V113.495C367.545 113.467 367.709 113.32 367.709 112.448V108.172C367.709 107.32 367.583 107.164 366.797 107.128V106.781H370C372.199 106.781 373.795 108.32 373.795 110.429C373.795 112.44 372.308 113.844 370.183 113.844H366.616Z" fill="white"/>
<path d="M381.258 110.396C381.258 108.429 380.255 107.193 378.649 107.193C377.043 107.193 376.039 108.429 376.039 110.396C376.039 112.256 377.043 113.429 378.649 113.429C380.245 113.429 381.258 112.256 381.258 110.396ZM382.443 110.368C382.443 112.357 380.766 113.935 378.649 113.935C376.533 113.935 374.853 112.357 374.853 110.368C374.853 108.295 376.514 106.688 378.649 106.688C380.785 106.688 382.443 108.295 382.443 110.368" fill="white"/>
<path d="M143.153 38.5913C142.319 37.938 141.755 37.4927 141.754 37.4913C142.053 37.7273 135.583 45.7927 131.861 50.37C130.827 51.642 130.002 52.65 129.595 53.142L134.311 50.37L133.27 107.993L78.3646 141.565L33.5033 116.605C27.686 117.613 21.894 117.873 16.8113 116.878C16.5433 116.826 16.286 116.755 16.0206 116.695L78.2113 153.362L143.615 114.802V38.954C143.454 38.8273 143.299 38.706 143.153 38.5913Z" fill="#5BA8DC"/>
<path d="M127.244 22.8883L134.524 29.4629C134.266 29.7909 134.006 30.1096 133.746 30.4296C133.588 30.6243 133.431 30.8203 133.274 31.0163C130.772 34.1349 128.259 37.1269 125.744 39.9829C94.8044 75.1029 63.9804 90.4483 63.9804 90.4483C46.6097 100.492 33.9737 104.64 24.7897 105.508C20.1017 105.951 16.3177 105.536 13.259 104.618C13.0764 104.563 12.9177 104.491 12.7404 104.432C2.06437 100.915 0.643034 91.1296 0.643034 91.1296C0.643034 91.1296 0.197691 91.1069 0.197691 91.1109C-1.29698 107.224 5.8497 114.459 16.0217 116.695C16.291 116.755 16.5537 116.826 16.8284 116.878C23.2257 118.102 30.7244 117.443 38.0124 115.798C42.3764 114.81 46.663 113.474 50.5857 111.982C80.9924 100.402 110.446 77.8429 131.734 53.4509C131.888 53.2763 132.915 52.0523 134.311 50.3709C138.112 45.7923 144.718 37.7269 144.412 37.4909C144.414 37.4923 144.991 37.9376 145.842 38.5909C145.991 38.7069 146.148 38.8283 146.314 38.9549C148.848 40.9069 153.026 44.1243 153.026 44.1243L157.175 11.7696L127.244 22.8883Z" fill="white"/>
</svg>
