<svg width="200" height="200" viewBox="0 0 200 200" fill="none" xmlns="http://www.w3.org/2000/svg">
<rect width="200" height="200" fill="white"/>
<path d="M83.1572 120.048V82.3831L70.3918 85.7924V126.856C74.3398 124.115 78.6078 121.891 83.1572 120.048Z" fill="#337ABE"/>
<path d="M102.923 110.94V70.6816L90.1581 73.7136V117.372C94.5141 115.436 98.7101 113.198 102.923 110.94Z" fill="#337ABE"/>
<path d="M122.142 102.428V59.248L109.376 61.908V107.617C113.587 105.608 117.824 103.941 122.142 102.428Z" fill="#337ABE"/>
<path d="M45.7893 128.508V67.928L100.551 36.312L146.744 62.9827C149.259 60.1267 151.773 57.1347 154.273 54.016L100.551 23L34.26 61.272V127.617C37.3173 128.536 41.1013 128.951 45.7893 128.508Z" fill="#337ABE"/>
<path d="M164.153 61.5913C163.319 60.938 162.755 60.4927 162.754 60.4913C163.053 60.7273 156.583 68.7927 152.861 73.37C151.827 74.642 151.002 75.65 150.595 76.142L155.311 73.37L154.27 130.993L99.3646 164.565L54.5033 139.605C48.686 140.613 42.894 140.873 37.8113 139.878C37.5433 139.826 37.286 139.755 37.0206 139.695L99.2113 176.362L164.615 137.802V61.954C164.454 61.8273 164.299 61.706 164.153 61.5913Z" fill="#5BA8DC"/>
<path d="M148.244 45.8883L155.524 52.4629C155.266 52.7909 155.006 53.1096 154.746 53.4296C154.588 53.6243 154.431 53.8203 154.274 54.0163C151.772 57.1349 149.259 60.1269 146.744 62.9829C115.804 98.1029 84.9804 113.448 84.9804 113.448C67.6097 123.492 54.9737 127.64 45.7897 128.508C41.1017 128.951 37.3177 128.536 34.259 127.618C34.0764 127.563 33.9177 127.491 33.7404 127.432C23.0644 123.915 21.643 114.13 21.643 114.13C21.643 114.13 21.1977 114.107 21.1977 114.111C19.703 130.224 26.8497 137.459 37.0217 139.695C37.291 139.755 37.5537 139.826 37.8284 139.878C44.2257 141.102 51.7244 140.443 59.0124 138.798C63.3764 137.81 67.663 136.474 71.5857 134.982C101.992 123.402 131.446 100.843 152.734 76.4509C152.888 76.2763 153.915 75.0523 155.311 73.3709C159.112 68.7923 165.718 60.7269 165.412 60.4909C165.414 60.4923 165.991 60.9376 166.842 61.5909C166.991 61.7069 167.148 61.8283 167.314 61.9549C169.848 63.9069 174.026 67.1243 174.026 67.1243L178.175 34.7696L148.244 45.8883Z" fill="#4D4C4E"/>
</svg>
