<svg width="158" height="154" viewBox="0 0 158 154" fill="none" xmlns="http://www.w3.org/2000/svg">
<path d="M62.1572 97.0484V59.3831L49.3918 62.7924V103.856C53.3398 101.115 57.6078 98.8911 62.1572 97.0484Z" fill="#337ABE"/>
<path d="M81.9234 87.9403V47.6816L69.1581 50.7136V94.3723C73.5141 92.4363 77.7101 90.1976 81.9234 87.9403Z" fill="#337ABE"/>
<path d="M101.142 79.428V36.248L88.3762 38.908V84.6173C92.5869 82.608 96.8242 80.9413 101.142 79.428Z" fill="#337ABE"/>
<path d="M24.7893 105.508V44.928L79.5507 13.312L125.744 39.9827C128.259 37.1267 130.773 34.1347 133.273 31.016L79.5507 -3.87315e-06L13.26 38.272V104.617C16.3173 105.536 20.1013 105.951 24.7893 105.508Z" fill="#337ABE"/>
<path d="M143.153 38.5913C142.319 37.938 141.755 37.4927 141.754 37.4913C142.053 37.7273 135.583 45.7927 131.861 50.37C130.827 51.642 130.002 52.65 129.595 53.142L134.311 50.37L133.27 107.993L78.3646 141.565L33.5033 116.605C27.686 117.613 21.894 117.873 16.8113 116.878C16.5433 116.826 16.286 116.755 16.0206 116.695L78.2113 153.362L143.615 114.802V38.954C143.454 38.8273 143.299 38.706 143.153 38.5913Z" fill="#5BA8DC"/>
<path d="M127.244 22.8883L134.524 29.4629C134.266 29.7909 134.006 30.1096 133.746 30.4296C133.588 30.6243 133.431 30.8203 133.274 31.0163C130.772 34.1349 128.259 37.1269 125.744 39.9829C94.8044 75.1029 63.9804 90.4483 63.9804 90.4483C46.6097 100.492 33.9737 104.64 24.7897 105.508C20.1017 105.951 16.3177 105.536 13.259 104.618C13.0764 104.563 12.9177 104.491 12.7404 104.432C2.06437 100.915 0.643034 91.1296 0.643034 91.1296C0.643034 91.1296 0.197691 91.1069 0.197691 91.1109C-1.29698 107.224 5.8497 114.459 16.0217 116.695C16.291 116.755 16.5537 116.826 16.8284 116.878C23.2257 118.102 30.7244 117.443 38.0124 115.798C42.3764 114.81 46.663 113.474 50.5857 111.982C80.9924 100.402 110.446 77.8429 131.734 53.4509C131.888 53.2763 132.915 52.0523 134.311 50.3709C138.112 45.7923 144.718 37.7269 144.412 37.4909C144.414 37.4923 144.991 37.9376 145.842 38.5909C145.991 38.7069 146.148 38.8283 146.314 38.9549C148.848 40.9069 153.026 44.1243 153.026 44.1243L157.175 11.7696L127.244 22.8883Z" fill="#4D4C4E"/>
</svg>
