<svg width="271" height="107" viewBox="0 0 271 107" fill="none" xmlns="http://www.w3.org/2000/svg">
<path d="M43.3664 67.7082V41.4309L34.4597 43.8082V72.4589C37.2157 70.5455 40.1917 68.9935 43.3664 67.7082Z" fill="white"/>
<path d="M57.1581 61.3541V33.2661L48.2515 35.3821V65.8421C51.2915 64.4914 54.2181 62.9287 57.1581 61.3541Z" fill="white"/>
<path d="M70.5656 55.4146V25.2893L61.6589 27.1453V59.036C64.5976 57.6346 67.5536 56.4706 70.5656 55.4146Z" fill="white"/>
<path d="M17.2949 73.6107V31.3453L55.5015 9.28799L87.7295 27.8947C89.4842 25.9027 91.2389 23.816 92.9829 21.6387L55.5015 -5.7776e-06L9.2522 26.7013V72.9893C11.3842 73.6307 14.0255 73.9187 17.2949 73.6107Z" fill="white"/>
<path d="M121.05 43.8685L126.157 32.2205H130.555V32.9685C128.867 33.0285 128.611 33.5592 128.611 35.9458V43.6712C128.611 46.2725 128.906 46.5885 130.751 46.6472V47.3965H124.389V46.6472C126.235 46.5885 126.549 46.2538 126.549 43.8098V34.6645H126.354L120.618 47.5925H120.187L114.55 34.6645H114.47V43.6712C114.47 46.2725 114.765 46.5885 116.613 46.6472V47.3965H111.133V46.6472C112.979 46.5885 113.293 46.2538 113.293 43.8098V35.8072C113.293 33.5792 113.018 33.0472 111.33 32.9685V32.2205H116.022L120.971 43.8685H121.05Z" fill="white"/>
<path d="M136.381 40.9121H140.858L138.679 35.0975L136.381 40.9121ZM141.231 41.8975H135.987C135.085 44.0655 134.77 45.1495 134.77 45.6815C134.77 46.4108 135.221 46.6468 136.302 46.6468V47.3961H131.529V46.6468C132.727 46.5095 133.219 46.1735 133.67 45.0508L138.777 32.2201H139.622L144.079 43.3361C145.278 46.2921 145.71 46.6281 147.065 46.6281V47.3961H140.662V46.6281C142.057 46.6281 142.489 46.3921 142.489 45.7801C142.489 45.2681 142.391 44.9335 142.035 44.0268L141.231 41.8975Z" fill="white"/>
<path d="M160.431 47.593L151.105 35.2544H151.025V43.6717C151.025 46.273 151.299 46.589 152.969 46.6477V47.397H147.686V46.6477C149.533 46.589 149.847 46.2544 149.847 43.809V35.8064C149.847 33.5797 149.571 33.0463 147.883 32.969V32.2197H151.771L160.353 43.7104H160.431V35.945C160.431 33.3424 160.158 33.0277 158.489 32.969V32.2197H163.771V32.969C161.926 33.0277 161.611 33.3637 161.611 35.8064V47.593H160.431Z" fill="white"/>
<path d="M169.616 39.0592C172.446 39.0592 173.328 38.3885 173.328 36.7925H174.016V42.1725H173.328C173.328 40.5965 172.563 39.8672 169.616 39.8472V44.3018C169.616 46.0165 170.403 46.5498 172.876 46.5498C175.646 46.5498 176.628 45.8392 177.139 43.5138H177.884L177.59 47.3965H165.394V46.6472C167.24 46.5885 167.554 46.2538 167.554 44.4005V35.2165C167.554 33.3832 167.28 33.0472 165.59 32.9685V32.2205H176.942L177.119 35.6885H176.431C176.118 33.5992 175.116 33.0672 172.446 33.0672H169.951C169.735 33.0672 169.616 33.2045 169.616 33.4018V39.0592Z" fill="white"/>
<path d="M181.611 35.2161C181.611 33.3828 181.336 33.0468 179.647 32.9681V32.2201H185.618V32.9681C183.927 33.0281 183.674 33.3628 183.674 35.3548V47.4361C183.674 50.7268 182.24 52.5201 179.587 52.5201C177.802 52.5201 176.602 51.7521 176.602 50.6081C176.602 49.9388 176.976 49.5641 177.604 49.5641C178.095 49.5641 178.331 49.7628 178.724 50.4908C179.175 51.3388 179.431 51.5748 179.942 51.5748C181.003 51.5748 181.611 50.3534 181.611 48.2441V35.2161Z" fill="white"/>
<path d="M201.189 39.9857C201.189 35.767 199.028 33.107 195.572 33.107C192.115 33.107 189.955 35.767 189.955 39.9857C189.955 43.9857 192.115 46.5097 195.572 46.5097C199.008 46.5097 201.189 43.9857 201.189 39.9857ZM203.743 39.927C203.743 44.2043 200.129 47.5937 195.572 47.5937C191.016 47.5937 187.401 44.2043 187.401 39.927C187.401 35.471 190.976 32.0217 195.572 32.0217C200.167 32.0217 203.743 35.471 203.743 39.927" fill="white"/>
<path d="M115.355 61.4146C118.183 61.4146 119.067 60.7453 119.067 59.148H119.755V64.528H119.067C119.067 62.9533 118.301 62.2226 115.355 62.204V66.6573C115.355 68.372 116.14 68.9053 118.615 68.9053C121.384 68.9053 122.367 68.1946 122.877 65.8693H123.623L123.327 69.7506H111.132V69.0026C112.98 68.944 113.292 68.6093 113.292 66.7573V57.5706C113.292 55.7386 113.017 55.404 111.329 55.324V54.576H122.68L122.857 58.044H122.169C121.856 55.9546 120.853 55.4226 118.183 55.4226H115.688C115.473 55.4226 115.355 55.56 115.355 55.7573V61.4146Z" fill="white"/>
<path d="M125.641 65.1204H126.368C126.74 67.5057 128.468 68.9444 130.825 68.9444C132.75 68.9444 133.968 67.9377 133.968 66.3817C133.968 65.0417 133.182 64.2737 130.53 63.1097C127.27 61.6697 126.27 60.587 126.27 58.5577C126.27 56.1137 128.096 54.3777 130.669 54.3777C131.808 54.3777 132.77 54.7324 133.79 55.5404L134.301 54.6537H134.753L134.969 58.5764H134.242C133.613 56.4284 132.396 55.383 130.726 55.383C129.137 55.383 128.114 56.251 128.114 57.571C128.114 58.8137 128.881 59.563 131.12 60.567C135.008 62.3217 136.109 63.4044 136.109 65.475C136.109 68.1164 133.929 69.9497 130.766 69.9497C129.274 69.9497 128.154 69.555 126.937 68.5684L126.388 69.535H125.936L125.641 65.1204Z" fill="white"/>
<path d="M152.463 58.3398H151.657C151.481 56.0545 150.577 55.4225 148.299 55.4225C146.355 55.4225 146.081 55.5825 146.081 56.0345V66.5785C146.081 68.2745 146.395 68.9238 148.613 69.0038V69.7518H141.189V69.0038C143.409 68.9238 143.743 68.2745 143.743 66.5785V56.0345C143.743 55.5825 143.488 55.4225 141.819 55.4225C139.776 55.4225 138.244 55.5412 138.165 58.3398H137.439V54.5758H152.268L152.463 58.3398Z" fill="white"/>
<path d="M157.896 61.5729H159.291C161.883 61.5729 163.16 60.6662 163.16 58.4782C163.16 56.3689 162.178 55.5022 160.038 55.5022H158.23C158.015 55.5022 157.896 55.6396 157.896 55.8369V61.5729ZM161.766 62.4009L166.106 67.6436C166.812 68.5102 167.638 68.8262 168.798 69.0036V69.7516H165.007L160.195 63.5636C159.507 62.6569 159.115 62.5582 157.896 62.5582V66.6569C157.896 68.6089 158.23 69.0036 160.606 69.0036V69.7516H153.674V69.0036C155.52 68.9436 155.835 68.6089 155.835 66.7569V57.5716C155.835 55.7382 155.559 55.4036 153.87 55.3236V54.5756H160.038C163.632 54.5756 165.714 55.9942 165.714 58.3796C165.714 60.4689 164.516 61.9289 161.766 62.4009" fill="white"/>
<path d="M172.994 63.2669H177.47L175.291 57.4536L172.994 63.2669ZM177.846 64.2536H172.601C171.697 66.4216 171.382 67.5056 171.382 68.0376C171.382 68.7669 171.835 69.0029 172.914 69.0029V69.7509H168.142V69.0029C169.341 68.8642 169.831 68.5309 170.283 67.4056L175.39 54.5749H176.234L180.691 65.6909C181.89 68.6482 182.322 68.9829 183.678 68.9829V69.7509H177.275V68.9829C178.67 68.9829 179.101 68.7469 179.101 68.1362C179.101 67.6229 179.003 67.2896 178.65 66.3816L177.846 64.2536Z" fill="white"/>
<path d="M197.42 58.3398H196.615C196.439 56.0545 195.535 55.4225 193.256 55.4225C191.312 55.4225 191.037 55.5825 191.037 56.0345V66.5785C191.037 68.2745 191.352 68.9238 193.569 69.0038V69.7518H186.147V69.0038C188.367 68.9238 188.7 68.2745 188.7 66.5785V56.0345C188.7 55.5825 188.445 55.4225 186.776 55.4225C184.732 55.4225 183.201 55.5412 183.121 58.3398H182.395V54.5758H197.224L197.42 58.3398Z" fill="white"/>
<path d="M203.227 52.9986L205.779 51.4813C206.506 51.0466 206.959 50.8306 207.488 50.8306C207.939 50.8306 208.234 51.0866 208.234 51.5199C208.234 51.9346 207.644 52.2493 206.76 52.4466L204.406 52.9986H203.227ZM202.854 61.4146C205.682 61.4146 206.566 60.7453 206.566 59.1479H207.254V64.5279H206.566C206.566 62.9533 205.8 62.2226 202.854 62.2039V66.6573C202.854 68.3719 203.64 68.9053 206.114 68.9053C208.882 68.9053 209.866 68.1946 210.375 65.8693H211.122L210.827 69.7506H198.63V69.0026C200.476 68.9439 200.791 68.6093 200.791 66.7573V57.5706C200.791 55.7386 200.516 55.4039 198.827 55.3239V54.5759H210.179L210.356 58.0439H209.667C209.355 55.9546 208.352 55.4226 205.682 55.4226H203.187C202.971 55.4226 202.854 55.5599 202.854 55.7573V61.4146Z" fill="white"/>
<path d="M213.177 62.4205C213.177 57.6512 216.241 54.3778 220.7 54.3778C222.271 54.3778 223.567 54.7925 225.177 55.7978L225.591 54.5752H226.277L226.023 59.1085H225.08C225.08 56.5458 222.997 55.4032 220.876 55.4032C217.696 55.4032 215.811 58.0045 215.811 62.3018C215.811 66.5192 217.636 68.8845 220.935 68.8845C223.469 68.8845 224.941 67.5645 224.941 66.1058C224.941 64.5672 224.372 64.1538 222.979 64.1538V63.4045H228.555V64.1538C227.279 64.1538 226.945 64.5485 226.945 65.9085V68.1165C225.944 68.1165 225.433 68.2338 223.94 69.0818C223.039 69.5938 221.801 69.9485 220.405 69.9485C215.967 69.9485 213.177 67.0125 213.177 62.4205Z" fill="white"/>
<path d="M234.187 66.0266C234.187 68.6293 234.481 68.9439 236.325 69.0026V69.7506H229.964V69.0026C231.809 68.9439 232.124 68.6093 232.124 66.1653V58.1626C232.124 55.9359 231.848 55.4039 230.16 55.3239V54.5759H236.131V55.3239C234.44 55.3839 234.187 55.9159 234.187 58.2999V66.0266Z" fill="white"/>
<path d="M250.542 54.5754H251.091L251.269 59.1074H250.542C249.973 56.8234 248.205 55.4034 245.887 55.4034C242.705 55.4034 240.822 58.0048 240.822 62.3008C240.822 66.5194 242.647 68.8848 245.947 68.8848C248.442 68.8848 250.11 67.5061 250.818 64.8448H251.623V69.7514H250.935L250.483 68.1954C249.089 69.3768 247.439 69.9488 245.494 69.9488C241.057 69.9488 238.189 67.0128 238.189 62.4208C238.189 57.6514 241.253 54.3781 245.71 54.3781C247.282 54.3781 248.578 54.7928 250.189 55.7981L250.542 54.5754Z" fill="white"/>
<path d="M267.661 62.3423C267.661 58.1237 265.502 55.461 262.045 55.461C258.589 55.461 256.426 58.1237 256.426 62.3423C256.426 66.3423 258.589 68.865 262.045 68.865C265.482 68.865 267.661 66.3423 267.661 62.3423ZM270.215 62.2823C270.215 66.5597 266.601 69.949 262.045 69.949C257.489 69.949 253.875 66.5597 253.875 62.2823C253.875 57.8277 257.449 54.3783 262.045 54.3783C266.639 54.3783 270.215 57.8277 270.215 62.2823" fill="white"/>
<path d="M110.942 75.2916C110.683 74.8502 110.535 74.7409 110.185 74.7409V74.4982H112.191V74.7409C111.771 74.7409 111.611 74.7982 111.611 74.9582C111.611 75.0422 111.657 75.1689 111.757 75.3422L112.745 77.0396H112.77L113.49 75.8209C113.757 75.3676 113.865 75.1182 113.865 74.9582C113.865 74.7982 113.757 74.7409 113.451 74.7409V74.4982H114.909V74.7409C114.553 74.7409 114.387 74.9076 113.865 75.7902L112.885 77.4556V78.2156C112.885 79.0476 112.969 79.1822 113.579 79.1822V79.4262H111.517V79.1822C112.122 79.1822 112.215 79.0422 112.215 78.2622V77.4809L110.942 75.2916Z" fill="white"/>
<path d="M116.831 77.9218H117.067C117.187 78.6952 117.747 79.1632 118.511 79.1632C119.135 79.1632 119.53 78.8378 119.53 78.3325C119.53 77.8965 119.275 77.6472 118.415 77.2698C117.359 76.8032 117.034 76.4498 117.034 75.7898C117.034 74.9978 117.627 74.4338 118.461 74.4338C118.83 74.4338 119.142 74.5485 119.473 74.8112L119.637 74.5218H119.783L119.855 75.7965H119.619C119.415 75.1005 119.021 74.7592 118.479 74.7592C117.965 74.7592 117.633 75.0418 117.633 75.4685C117.633 75.8752 117.881 76.1165 118.606 76.4432C119.866 77.0125 120.225 77.3658 120.225 78.0365C120.225 78.8952 119.517 79.4898 118.491 79.4898C118.009 79.4898 117.646 79.3632 117.25 79.0432L117.073 79.3552H116.927L116.831 77.9218Z" fill="white"/>
<path d="M122.222 76.7187C123.138 76.7187 123.426 76.5014 123.426 75.9827H123.647V77.7321H123.426C123.426 77.2174 123.178 76.9801 122.222 76.9747V78.4214C122.222 78.9774 122.478 79.1521 123.279 79.1521C124.176 79.1521 124.495 78.9187 124.659 78.1654H124.903L124.806 79.4254H120.854V79.1827C121.452 79.1627 121.554 79.0534 121.554 78.4534V75.4694C121.554 74.8747 121.466 74.7654 120.916 74.7414V74.4987H124.598L124.654 75.6241H124.431C124.328 74.9454 124.004 74.7734 123.138 74.7734H122.33C122.26 74.7734 122.222 74.8187 122.222 74.8827V76.7187Z" fill="white"/>
<path d="M126.843 76.7694H127.295C128.136 76.7694 128.55 76.4747 128.55 75.7654C128.55 75.0801 128.232 74.7974 127.538 74.7974H126.952C126.882 74.7974 126.843 74.8441 126.843 74.9081V76.7694ZM128.096 77.0387L129.503 78.7414C129.732 79.0227 130.002 79.1254 130.375 79.1827V79.4254H129.148L127.59 77.4161C127.367 77.1227 127.238 77.0894 126.843 77.0894V78.4214C126.843 79.0534 126.952 79.1827 127.72 79.1827V79.4254H125.476V79.1827C126.074 79.1627 126.175 79.0534 126.175 78.4534V75.4681C126.175 74.8747 126.087 74.7654 125.539 74.7414V74.4987H127.538C128.703 74.4987 129.376 74.9587 129.376 75.7334C129.376 76.4121 128.988 76.8841 128.096 77.0387Z" fill="white"/>
<path d="M132.605 78.4466L133.725 75.6693C133.851 75.3546 133.897 75.196 133.897 75.0546C133.897 74.824 133.775 74.7413 133.401 74.7413V74.4986H134.947V74.7413C134.558 74.7866 134.399 74.9013 134.253 75.2573L132.529 79.4893H132.305L130.663 75.5013C130.447 74.984 130.269 74.7733 129.822 74.748V74.4986H131.898V74.748C131.426 74.748 131.318 74.8373 131.318 75.0173C131.318 75.1386 131.357 75.2733 131.47 75.568L132.605 78.4466Z" fill="white"/>
<path d="M136.551 78.2161C136.551 79.0614 136.647 79.1628 137.246 79.1828V79.4254H135.183V79.1828C135.781 79.1628 135.882 79.0534 135.882 78.2614V75.6641C135.882 74.9388 135.794 74.7654 135.246 74.7414V74.4988H137.182V74.7414C136.634 74.7588 136.551 74.9334 136.551 75.7068V78.2161Z" fill="white"/>
<path d="M141.853 74.4986H142.031L142.089 75.9693H141.853C141.667 75.228 141.096 74.7653 140.344 74.7653C139.315 74.7653 138.703 75.6106 138.703 77.0066C138.703 78.376 139.295 79.144 140.363 79.144C141.171 79.144 141.713 78.6946 141.941 77.8333H142.204V79.4253H141.98L141.835 78.9186C141.381 79.304 140.848 79.4893 140.217 79.4893C138.779 79.4893 137.848 78.536 137.848 77.044C137.848 75.496 138.843 74.4333 140.287 74.4333C140.796 74.4333 141.215 74.568 141.739 74.8946L141.853 74.4986Z" fill="white"/>
<path d="M144.227 78.2161C144.227 79.0614 144.323 79.1628 144.922 79.1828V79.4254H142.86V79.1828C143.458 79.1628 143.559 79.0534 143.559 78.2614V75.6641C143.559 74.9388 143.47 74.7654 142.922 74.7414V74.4988H144.859V74.7414C144.31 74.7588 144.227 74.9334 144.227 75.7068V78.2161Z" fill="white"/>
<path d="M149.956 77.0207C149.956 75.6487 149.256 74.7861 148.136 74.7861C147.016 74.7861 146.316 75.6487 146.316 77.0207C146.316 78.3181 147.016 79.1381 148.136 79.1381C149.251 79.1381 149.956 78.3181 149.956 77.0207ZM150.784 77.0007C150.784 78.3887 149.612 79.4901 148.136 79.4901C146.658 79.4901 145.488 78.3887 145.488 77.0007C145.488 75.5541 146.647 74.4341 148.136 74.4341C149.626 74.4341 150.784 75.5541 150.784 77.0007" fill="white"/>
<path d="M151.518 77.9218H151.752C151.872 78.6952 152.434 79.1632 153.196 79.1632C153.822 79.1632 154.215 78.8378 154.215 78.3325C154.215 77.8965 153.96 77.6472 153.1 77.2698C152.044 76.8032 151.719 76.4498 151.719 75.7898C151.719 74.9978 152.312 74.4338 153.146 74.4338C153.515 74.4338 153.827 74.5485 154.158 74.8112L154.323 74.5218H154.47L154.54 75.7965H154.304C154.1 75.1005 153.707 74.7592 153.164 74.7592C152.65 74.7592 152.319 75.0418 152.319 75.4685C152.319 75.8752 152.567 76.1165 153.292 76.4432C154.551 77.0125 154.91 77.3658 154.91 78.0365C154.91 78.8952 154.203 79.4898 153.178 79.4898C152.694 79.4898 152.331 79.3632 151.936 79.0432L151.758 79.3552H151.611L151.518 77.9218Z" fill="white"/>
<path d="M158.861 74.8111C158.79 74.8111 158.752 74.8565 158.752 74.9205V78.3818C158.752 78.8765 159.058 79.1138 159.702 79.1138C160.853 79.1138 161.502 78.4005 161.502 77.0591C161.502 75.6431 160.802 74.8111 159.668 74.8111H158.861ZM157.32 79.4258V79.1818C157.97 79.1631 158.085 79.0618 158.085 78.4525V75.4685C158.085 74.8751 157.996 74.7658 157.448 74.7405V74.4991H159.682C161.216 74.4991 162.332 75.5725 162.332 77.0445C162.332 78.4471 161.293 79.4258 159.81 79.4258H157.32Z" fill="white"/>
<path d="M164.278 76.7187C165.195 76.7187 165.481 76.5014 165.481 75.9827H165.703V77.7321H165.481C165.481 77.2174 165.234 76.9801 164.278 76.9747V78.4214C164.278 78.9774 164.533 79.1521 165.334 79.1521C166.233 79.1521 166.551 78.9187 166.717 78.1654H166.959L166.862 79.4254H162.91V79.1827C163.509 79.1627 163.61 79.0534 163.61 78.4534V75.4694C163.61 74.8747 163.522 74.7654 162.974 74.7414V74.4987H166.653L166.71 75.6241H166.487C166.385 74.9454 166.061 74.7734 165.195 74.7734H164.386C164.317 74.7734 164.278 74.8187 164.278 74.8827V76.7187Z" fill="white"/>
<path d="M170.351 77.3202H171.803L171.096 75.4309L170.351 77.3202ZM171.924 77.6402H170.223C169.931 78.3442 169.828 78.6949 169.828 78.8682C169.828 79.1069 169.976 79.1816 170.324 79.1816V79.4256H168.779V79.1816C169.167 79.1376 169.327 79.0282 169.473 78.6629L171.128 74.4989H171.401L172.845 78.1069C173.233 79.0696 173.375 79.1776 173.813 79.1776V79.4256H171.739V79.1776C172.191 79.1776 172.331 79.0989 172.331 78.9016C172.331 78.7349 172.299 78.6256 172.184 78.3322L171.924 77.6402Z" fill="white"/>
<path d="M174.099 77.9218H174.335C174.457 78.6952 175.015 79.1632 175.781 79.1632C176.405 79.1632 176.798 78.8378 176.798 78.3325C176.798 77.8965 176.543 77.6472 175.683 77.2698C174.627 76.8032 174.303 76.4498 174.303 75.7898C174.303 74.9978 174.895 74.4338 175.73 74.4338C176.098 74.4338 176.409 74.5485 176.741 74.8112L176.907 74.5218H177.053L177.123 75.7965H176.889C176.683 75.1005 176.289 74.7592 175.747 74.7592C175.233 74.7592 174.902 75.0418 174.902 75.4685C174.902 75.8752 175.15 76.1165 175.875 76.4432C177.135 77.0125 177.493 77.3658 177.493 78.0365C177.493 78.8952 176.786 79.4898 175.761 79.4898C175.278 79.4898 174.914 79.3632 174.519 79.0432L174.342 79.3552H174.194L174.099 77.9218Z" fill="white"/>
<path d="M179.491 76.7187C180.407 76.7187 180.694 76.5014 180.694 75.9827H180.917V77.7321H180.694C180.694 77.2174 180.446 76.9801 179.491 76.9747V78.4214C179.491 78.9774 179.745 79.1521 180.549 79.1521C181.446 79.1521 181.763 78.9187 181.929 78.1654H182.171L182.075 79.4254H178.123V79.1827C178.721 79.1627 178.822 79.0534 178.822 78.4534V75.4694C178.822 74.8747 178.734 74.7654 178.186 74.7414V74.4987H181.866L181.923 75.6241H181.701C181.598 74.9454 181.274 74.7734 180.407 74.7734H179.601C179.529 74.7734 179.491 74.8187 179.491 74.8827V76.7187Z" fill="white"/>
<path d="M182.827 77.9218H183.063C183.183 78.6952 183.743 79.1632 184.507 79.1632C185.133 79.1632 185.526 78.8378 185.526 78.3325C185.526 77.8965 185.273 77.6472 184.411 77.2698C183.355 76.8032 183.03 76.4498 183.03 75.7898C183.03 74.9978 183.623 74.4338 184.457 74.4338C184.826 74.4338 185.138 74.5485 185.469 74.8112L185.634 74.5218H185.781L185.851 75.7965H185.617C185.411 75.1005 185.018 74.7592 184.477 74.7592C183.961 74.7592 183.629 75.0418 183.629 75.4685C183.629 75.8752 183.878 76.1165 184.603 76.4432C185.862 77.0125 186.221 77.3658 186.221 78.0365C186.221 78.8952 185.514 79.4898 184.489 79.4898C184.005 79.4898 183.642 79.3632 183.246 79.0432L183.069 79.3552H182.923L182.827 77.9218Z" fill="white"/>
<path d="M191.395 77.0207C191.395 75.6487 190.695 74.7861 189.575 74.7861C188.454 74.7861 187.752 75.6487 187.752 77.0207C187.752 78.3181 188.454 79.1381 189.575 79.1381C190.688 79.1381 191.395 78.3181 191.395 77.0207ZM192.222 77.0007C192.222 78.3887 191.05 79.4901 189.575 79.4901C188.098 79.4901 186.926 78.3887 186.926 77.0007C186.926 75.5541 188.084 74.4341 189.575 74.4341C191.064 74.4341 192.222 75.5541 192.222 77.0007" fill="white"/>
<path d="M194.157 76.7694H194.61C195.45 76.7694 195.863 76.4747 195.863 75.7654C195.863 75.0801 195.545 74.7974 194.851 74.7974H194.266C194.194 74.7974 194.157 74.8441 194.157 74.9081V76.7694ZM195.411 77.0387L196.818 78.7414C197.046 79.0227 197.314 79.1254 197.689 79.1827V79.4254H196.462L194.902 77.4161C194.681 77.1227 194.551 77.0894 194.157 77.0894V78.4214C194.157 79.0534 194.266 79.1827 195.035 79.1827V79.4254H192.789V79.1827C193.387 79.1627 193.489 79.0534 193.489 78.4534V75.4681C193.489 74.8747 193.399 74.7654 192.851 74.7414V74.4987H194.851C196.017 74.4987 196.691 74.9587 196.691 75.7334C196.691 76.4121 196.302 76.8841 195.411 77.0387" fill="white"/>
<path d="M199.174 76.7187C200.09 76.7187 200.375 76.5014 200.375 75.9827H200.598V77.7321H200.375C200.375 77.2174 200.13 76.9801 199.174 76.9747V78.4214C199.174 78.9774 199.427 79.1521 200.228 79.1521C201.127 79.1521 201.446 78.9187 201.611 78.1654H201.854L201.758 79.4254H197.804V79.1827C198.403 79.1627 198.504 79.0534 198.504 78.4534V75.4694C198.504 74.8747 198.416 74.7654 197.868 74.7414V74.4987H201.547L201.604 75.6241H201.382C201.28 74.9454 200.956 74.7734 200.09 74.7734H199.28C199.211 74.7734 199.174 74.8187 199.174 74.8827V76.7187Z" fill="white"/>
<path d="M202.51 77.9218H202.744C202.866 78.6952 203.426 79.1632 204.19 79.1632C204.814 79.1632 205.207 78.8378 205.207 78.3325C205.207 77.8965 204.952 77.6472 204.094 77.2698C203.038 76.8032 202.712 76.4498 202.712 75.7898C202.712 74.9978 203.306 74.4338 204.139 74.4338C204.507 74.4338 204.819 74.5485 205.15 74.8112L205.315 74.5218H205.463L205.532 75.7965H205.298C205.092 75.1005 204.699 74.7592 204.156 74.7592C203.643 74.7592 203.312 75.0418 203.312 75.4685C203.312 75.8752 203.559 76.1165 204.286 76.4432C205.544 77.0125 205.902 77.3658 205.902 78.0365C205.902 78.8952 205.196 79.4898 204.171 79.4898C203.687 79.4898 203.323 79.3632 202.93 79.0432L202.751 79.3552H202.603L202.51 77.9218Z" fill="white"/>
<path d="M209.727 76.7187C210.643 76.7187 210.93 76.5014 210.93 75.9827H211.151V77.7321H210.93C210.93 77.2174 210.683 76.9801 209.727 76.9747V78.4214C209.727 78.9774 209.982 79.1521 210.783 79.1521C211.68 79.1521 212 78.9187 212.164 78.1654H212.408L212.311 79.4254H208.358V79.1827C208.958 79.1627 209.059 79.0534 209.059 78.4534V75.4694C209.059 74.8747 208.971 74.7654 208.422 74.7414V74.4987H212.102L212.158 75.6241H211.935C211.834 74.9454 211.51 74.7734 210.643 74.7734H209.835C209.766 74.7734 209.727 74.8187 209.727 74.8827V76.7187Z" fill="white"/>
<path d="M213.062 77.9218H213.298C213.419 78.6952 213.978 79.1632 214.743 79.1632C215.367 79.1632 215.76 78.8378 215.76 78.3325C215.76 77.8965 215.507 77.6472 214.647 77.2698C213.59 76.8032 213.266 76.4498 213.266 75.7898C213.266 74.9978 213.859 74.4338 214.692 74.4338C215.062 74.4338 215.372 74.5485 215.704 74.8112L215.868 74.5218H216.016L216.087 75.7965H215.851C215.646 75.1005 215.254 74.7592 214.711 74.7592C214.195 74.7592 213.866 75.0418 213.866 75.4685C213.866 75.8752 214.114 76.1165 214.838 76.4432C216.098 77.0125 216.455 77.3658 216.455 78.0365C216.455 78.8952 215.75 79.4898 214.724 79.4898C214.24 79.4898 213.876 79.3632 213.482 79.0432L213.304 79.3552H213.158L213.062 77.9218Z" fill="white"/>
<path d="M218.454 76.8659H218.907C219.746 76.8659 220.16 76.5605 220.16 75.8112C220.16 75.0939 219.842 74.7979 219.148 74.7979H218.562C218.492 74.7979 218.454 74.8432 218.454 74.9072V76.8659ZM219.027 77.1859H218.454V78.4219C218.454 79.0539 218.562 79.1819 219.334 79.1819V79.4259H217.086V79.1819C217.684 79.1632 217.786 79.0539 217.786 78.4525V75.4685C217.786 74.8752 217.696 74.7659 217.148 74.7405V74.4992H219.148C220.314 74.4992 220.986 74.9579 220.986 75.7325C220.986 76.6299 220.446 77.1859 219.027 77.1859" fill="white"/>
<path d="M222.826 76.7187C223.742 76.7187 224.03 76.5014 224.03 75.9827H224.253V77.7321H224.03C224.03 77.2174 223.781 76.9801 222.826 76.9747V78.4214C222.826 78.9774 223.081 79.1521 223.883 79.1521C224.782 79.1521 225.098 78.9187 225.265 78.1654H225.506L225.41 79.4254H221.458V79.1827C222.057 79.1627 222.158 79.0534 222.158 78.4534V75.4694C222.158 74.8747 222.069 74.7654 221.522 74.7414V74.4987H225.201L225.258 75.6241H225.037C224.934 74.9454 224.61 74.7734 223.742 74.7734H222.935C222.863 74.7734 222.826 74.8187 222.826 74.8827V76.7187Z" fill="white"/>
<path d="M230.18 74.4986H230.356L230.415 75.9693H230.18C229.995 75.228 229.423 74.7653 228.669 74.7653C227.64 74.7653 227.028 75.6106 227.028 77.0066C227.028 78.376 227.62 79.144 228.688 79.144C229.499 79.144 230.04 78.6946 230.268 77.8333H230.531V79.4253H230.307L230.16 78.9186C229.708 79.304 229.173 79.4893 228.543 79.4893C227.104 79.4893 226.176 78.536 226.176 77.044C226.176 75.496 227.168 74.4333 228.612 74.4333C229.123 74.4333 229.541 74.568 230.065 74.8946L230.18 74.4986Z" fill="white"/>
<path d="M232.553 78.2161C232.553 79.0614 232.647 79.1628 233.247 79.1828V79.4254H231.185V79.1828C231.783 79.1628 231.885 79.0534 231.885 78.2614V75.6641C231.885 74.9388 231.795 74.7654 231.247 74.7414V74.4988H233.183V74.7414C232.635 74.7588 232.553 74.9334 232.553 75.7068V78.2161Z" fill="white"/>
<path d="M235.073 77.3202H236.525L235.819 75.4309L235.073 77.3202ZM236.647 77.6402H234.947C234.655 78.3442 234.551 78.6949 234.551 78.8682C234.551 79.1069 234.699 79.1816 235.047 79.1816V79.4256H233.501V79.1816C233.889 79.1376 234.048 79.0282 234.196 78.6629L235.851 74.4989H236.124L237.569 78.1069C237.957 79.0696 238.097 79.1776 238.539 79.1776V79.4256H236.461V79.1776C236.913 79.1776 237.053 79.0989 237.053 78.9016C237.053 78.7349 237.023 78.6256 236.908 78.3322L236.647 77.6402Z" fill="white"/>
<path d="M242.853 79.4257H238.74V79.1817C239.339 79.163 239.44 79.0537 239.44 78.4537V75.4684C239.44 74.875 239.351 74.7657 238.805 74.7404V74.499H240.739V74.7404C240.191 74.759 240.108 74.867 240.108 75.5137V78.2724C240.108 78.991 240.364 79.1377 241.241 79.1377C242.215 79.1377 242.521 78.959 242.705 78.1657H242.947L242.853 79.4257Z" fill="white"/>
<path d="M244.736 78.2161C244.736 79.0614 244.831 79.1628 245.431 79.1828V79.4254H243.367V79.1828C243.967 79.1628 244.068 79.0534 244.068 78.2614V75.6641C244.068 74.9388 243.98 74.7654 243.431 74.7414V74.4988H245.366V74.7414C244.819 74.7588 244.736 74.9334 244.736 75.7068V78.2161Z" fill="white"/>
<path d="M250.241 79.4257H245.824V79.4004L249.172 74.7657H247.429C246.831 74.7657 246.557 75.0084 246.443 75.675H246.207L246.303 74.499H250.179V74.5217L246.863 79.131H248.835C249.708 79.131 249.892 78.919 250.045 77.9217H250.319L250.241 79.4257Z" fill="white"/>
<path d="M252.158 77.3202H253.61L252.905 75.4309L252.158 77.3202ZM253.731 77.6402H252.031C251.739 78.3442 251.635 78.6949 251.635 78.8682C251.635 79.1069 251.783 79.1816 252.131 79.1816V79.4256H250.585V79.1816C250.974 79.1376 251.134 79.0282 251.279 78.6629L252.934 74.4989H253.209L254.653 78.1069C255.042 79.0696 255.182 79.1776 255.622 79.1776V79.4256H253.547V79.1776C253.998 79.1776 254.137 79.0989 254.137 78.9016C254.137 78.7349 254.106 78.6256 253.991 78.3322L253.731 77.6402Z" fill="white"/>
<path d="M257.321 74.8111C257.251 74.8111 257.213 74.8565 257.213 74.9205V78.3818C257.213 78.8765 257.518 79.1138 258.162 79.1138C259.313 79.1138 259.962 78.4005 259.962 77.0591C259.962 75.6431 259.262 74.8111 258.129 74.8111H257.321ZM255.781 79.4258V79.1818C256.429 79.1631 256.543 79.0618 256.543 78.4525V75.4685C256.543 74.8751 256.457 74.7658 255.906 74.7405V74.4991H258.141C259.677 74.4991 260.789 75.5725 260.789 77.0445C260.789 78.4471 259.751 79.4258 258.269 79.4258H255.781Z" fill="white"/>
<path d="M265.996 77.0207C265.996 75.6487 265.296 74.7861 264.176 74.7861C263.056 74.7861 262.356 75.6487 262.356 77.0207C262.356 78.3181 263.056 79.1381 264.176 79.1381C265.29 79.1381 265.996 78.3181 265.996 77.0207ZM266.823 77.0007C266.823 78.3887 265.652 79.4901 264.176 79.4901C262.699 79.4901 261.527 78.3887 261.527 77.0007C261.527 75.5541 262.688 74.4341 264.176 74.4341C265.666 74.4341 266.823 75.5541 266.823 77.0007" fill="white"/>
<path d="M267.557 77.9218H267.794C267.914 78.6952 268.474 79.1632 269.238 79.1632C269.862 79.1632 270.255 78.8378 270.255 78.3325C270.255 77.8965 270.001 77.6472 269.141 77.2698C268.085 76.8032 267.759 76.4498 267.759 75.7898C267.759 74.9978 268.353 74.4338 269.187 74.4338C269.555 74.4338 269.867 74.5485 270.198 74.8112L270.363 74.5218H270.511L270.581 75.7965H270.345C270.141 75.1005 269.747 74.7592 269.205 74.7592C268.691 74.7592 268.361 75.0418 268.361 75.4685C268.361 75.8752 268.607 76.1165 269.331 76.4432C270.593 77.0125 270.949 77.3658 270.949 78.0365C270.949 78.8952 270.242 79.4898 269.218 79.4898C268.734 79.4898 268.371 79.3632 267.975 79.0432L267.799 79.3552H267.651L267.557 77.9218Z" fill="white"/>
<path d="M99.8756 26.9245C99.2942 26.4685 98.9009 26.1578 98.9009 26.1565C99.1076 26.3205 94.5942 31.9485 91.9982 35.1418C91.2769 36.0285 90.7009 36.7325 90.4156 37.0765L93.7062 35.1418L92.9809 75.3431L54.6742 98.7671L23.3742 81.3511C19.3169 82.0565 15.2756 82.2365 11.7316 81.5431C11.5436 81.5071 11.3636 81.4565 11.1782 81.4151L54.5676 106.998L100.197 80.0951V27.1778C100.085 27.0898 99.9769 27.0045 99.8756 26.9245Z" fill="white"/>
<path d="M88.7765 15.9688L93.8565 20.5554C93.6752 20.7834 93.4939 21.0061 93.3125 21.2301C93.2019 21.3648 93.0925 21.5021 92.9819 21.6381C91.2392 23.8154 89.4832 25.9034 87.7299 27.8941C66.1432 52.3968 44.6379 63.1034 44.6379 63.1034C32.5192 70.1114 23.7032 73.0047 17.2952 73.6101C14.0259 73.9194 11.3845 73.6301 9.25121 72.9901C9.12454 72.9501 9.01387 72.9007 8.88987 72.8607C1.44187 70.4061 0.449872 63.5794 0.449872 63.5794C0.449872 63.5794 0.137881 63.5634 0.137881 63.5661C-0.904786 74.8074 4.08187 79.8554 11.1779 81.4154C11.3659 81.4567 11.5499 81.5061 11.7419 81.5434C16.2045 82.3967 21.4365 81.9381 26.5219 80.7888C29.5659 80.1008 32.5565 79.1674 35.2939 78.1274C56.5072 70.0474 77.0565 54.3101 91.9099 37.2914C92.0165 37.1687 92.7339 36.3154 93.7059 35.1421C96.3592 31.9474 100.969 26.3208 100.755 26.1568C100.755 26.1581 101.158 26.4688 101.75 26.9248C101.857 27.0034 101.966 27.0901 102.081 27.1781C103.85 28.5394 106.763 30.7848 106.763 30.7848L109.658 8.21142L88.7765 15.9688Z" fill="white"/>
</svg>
